<svg
  viewBox="0 0 100 100"
  width="100"
  height="100"
  xmlns="http://www.w3.org/2000/svg"
  fill="none"
  stroke="black"
  stroke-width="2"
  stroke-linecap="round"
  stroke-linejoin="round"
>
  <!-- Flor branca -->
  <g>
    <!-- Pétalas da flor -->
    <path
      d="M50 20c-3 0-6-1.3-8.2-3.4C38.3 15 35 13.8 32 13.8c-2.8 0-5.4 1-7.5 2.8C21.4 18.7 20 21.2 20 24c0 6.5 5.3 11.8 11.8 11.8S43.6 30.5 43.6 24c0-2.8-1.4-5.3-3.5-6.9C45.4 16.8 47 14 50 14c3 0 6 1.8 8.5 3.1-2.1 1.7-3.5 4.1-3.5 6.9 0 6.5 5.3 11.8 11.8 11.8s11.8-5.3 11.8-11.8c0-2.8-1.4-5.3-3.5-6.9C73 15.8 76 17.5 79 20M50 10v4M50 86v4M10 50h4M86 50h4M77.6 77.6l2.8 2.8M19.6 19.6l2.8 2.8M19.6 77.6l2.8-2.8M77.6 19.6l2.8-2.8"
    />
    <!-- Centro da flor -->
    <circle cx="50" cy="50" r="5" fill="black" />
  </g>
  <!-- Pegada de cachorro -->

  <g transform="translate(60, 60) scale(0.6)">
  <path d="M71.7,41c2.3,0.6,4.6,2,5.8,4.2c1.2,2.3,1.2,5.1,0,7.4c-0.6,1.2-1.8,2.3-3.1,2.9c-0.8,0.4-1.6,0.7-2.4,0.7c-1,0-2-0.4-2.7-1.1c-2.3-2.3-5.1-4.2-7.3-5.5c-0.8-0.4-1.4-1.2-1.8-2c-0.4-0.8-0.7-1.6-0.7-2.5c0-0.7,0.1-1.4,0.3-2C50.7,35.6,53.5,34,55.8,31.8c0.4-0.4,0.7-0.9,0.7-1.4c0-0.5-0.3-1-0.7-1.4c-2.3-2.3-5.1-4-8.1-5C47,24,46.2,24,45.4,24c-1.7,0-3.4,0.6-4.8,1.9c-1.6,1.4-2.6,3.2-2.9,5.2c-0.1,0.7-0.6,1.2-1.3,1.2c-0.1,0-0.3,0-0.4-0.1c-0.7-0.1-1.2-0.7-1.2-1.4c0-1.7,0.9-3.2,2.4-4.2c1.5-0.9,3.2-1.4,5-1.4c1.2,0,2.4,0.3,3.5,1c0.3,0.2,0.7,0.3,1.1,0.3c0.4,0,0.8-0.1,1.1-0.3c1-0.5,2.1-0.7,3.2-0.7c1.7,0,3.4,0.6,4.7,1.8c1.7,1.6,2.7,3.8,2.7,6.2C66.1,36.7,68.5,39.6,71.7,41z" />
  <path d="M54,60.6c-0.3,0-0.6-0.1-0.9-0.2c-0.8-0.4-1.3-1.3-1.3-2.2c0-0.9,0.5-1.8,1.3-2.2c0.3-0.2,0.7-0.3,1.1-0.3c0.4,0,0.8,0.1,1.1,0.3c1.3,0.7,2.8,1.1,4.4,1.1c1.7,0,3.3-0.4,4.7-1.1c0.3-0.2,0.7-0.3,1.1-0.3c0.4,0,0.8,0.1,1.1,0.3c0.8,0.4,1.3,1.3,1.3,2.2c0,0.9-0.5,1.8-1.3,2.2c-0.3,0.2-0.7,0.3-1.1,0.3c-0.4,0-0.8-0.1-1.1-0.3c-1.3-0.7-2.8-1.1-4.7-1.1C56.8,60.6,55.4,60.6,54,60.6z" />
</g>
</svg>